<svg width="96" height="25" viewBox="0 0 96 25" fill="none" xmlns="http://www.w3.org/2000/svg">
<path d="M9.536 19.288C10.496 19.288 11.424 19.16 12.32 18.904L13.664 21.16H17.144L15.008 17.632C16.192 16.816 17.136 15.752 17.84 14.44C18.544 13.128 18.896 11.664 18.896 10.048C18.896 8.72 18.656 7.496 18.176 6.376C17.712 5.256 17.056 4.288 16.208 3.472C15.36 2.64 14.368 1.992 13.232 1.528C12.096 1.064 10.864 0.831999 9.536 0.831999C8.208 0.831999 6.976 1.064 5.84 1.528C4.704 1.992 3.712 2.64 2.864 3.472C2.032 4.288 1.376 5.256 0.896 6.376C0.432 7.496 0.2 8.72 0.2 10.048C0.2 11.36 0.432 12.584 0.896 13.72C1.376 14.84 2.04 15.816 2.888 16.648C3.736 17.48 4.728 18.128 5.864 18.592C7 19.056 8.224 19.288 9.536 19.288ZM9.536 16.312C8.384 16.312 7.344 16.04 6.416 15.496C5.504 14.952 4.784 14.208 4.256 13.264C3.728 12.32 3.464 11.248 3.464 10.048C3.464 8.848 3.728 7.784 4.256 6.856C4.784 5.912 5.504 5.168 6.416 4.624C7.344 4.08 8.384 3.808 9.536 3.808C10.704 3.808 11.744 4.08 12.656 4.624C13.568 5.168 14.288 5.912 14.816 6.856C15.344 7.784 15.608 8.848 15.608 10.048C15.608 11.088 15.408 12.032 15.008 12.88C14.624 13.712 14.088 14.408 13.4 14.968L11.504 11.848H8.096L10.712 16.216C10.328 16.28 9.936 16.312 9.536 16.312ZM26.1903 19.288C27.0063 19.288 27.7263 19.136 28.3503 18.832C28.9903 18.512 29.4943 18.048 29.8623 17.44V19H32.8383V5.944H29.6943V13.6C29.6943 14.464 29.4463 15.152 28.9503 15.664C28.4543 16.16 27.8223 16.408 27.0543 16.408C26.2703 16.408 25.6303 16.16 25.1343 15.664C24.6543 15.168 24.4143 14.504 24.4143 13.672V5.944H21.2703V13.936C21.2703 15.536 21.7023 16.832 22.5663 17.824C23.4463 18.8 24.6543 19.288 26.1903 19.288ZM35.7609 4.48H38.9049V1.12H35.7609V4.48ZM35.7609 19H38.9049V5.944H35.7609V19ZM48.0958 19.288C49.0398 19.288 49.9118 19.128 50.7118 18.808C51.5118 18.472 52.1998 18.016 52.7758 17.44C53.3518 16.848 53.7678 16.184 54.0238 15.448L51.2638 14.2C51.0078 14.888 50.5998 15.432 50.0398 15.832C49.4958 16.216 48.8478 16.408 48.0958 16.408C47.4078 16.408 46.7918 16.24 46.2478 15.904C45.7198 15.568 45.3038 15.104 44.9998 14.512C44.6958 13.904 44.5438 13.224 44.5438 12.472C44.5438 11.704 44.6958 11.024 44.9998 10.432C45.3038 9.84 45.7198 9.376 46.2478 9.04C46.7918 8.704 47.4078 8.536 48.0958 8.536C48.8478 8.536 49.4958 8.736 50.0398 9.136C50.5998 9.536 51.0078 10.064 51.2638 10.72L54.0238 9.52C53.7518 8.752 53.3278 8.08 52.7518 7.504C52.1758 6.912 51.4878 6.456 50.6878 6.136C49.8878 5.816 49.0238 5.656 48.0958 5.656C46.7998 5.656 45.6318 5.952 44.5918 6.544C43.5678 7.136 42.7598 7.944 42.1678 8.968C41.5758 9.992 41.2798 11.152 41.2798 12.448C41.2798 13.744 41.5758 14.912 42.1678 15.952C42.7598 16.976 43.5678 17.792 44.5918 18.4C45.6318 18.992 46.7998 19.288 48.0958 19.288ZM56.4093 19H59.5533V15.016L61.2333 13.192L64.9053 19H68.5053L63.5853 11.2L68.4093 5.944H64.4973L59.5533 11.128V1.048H56.4093V19ZM70.2609 19H73.4049V1.12H70.2609V19ZM77.8918 24.304C79.1238 24.304 80.1478 23.952 80.9638 23.248C81.7958 22.56 82.4598 21.584 82.9558 20.32L88.6438 5.944H85.2358L81.8758 14.944L78.4918 5.944H75.1078L80.2678 19L79.9798 19.696C79.7238 20.24 79.4278 20.68 79.0918 21.016C78.7718 21.352 78.2518 21.52 77.5318 21.52C77.2758 21.52 77.0038 21.496 76.7158 21.448C76.4278 21.416 76.1718 21.368 75.9478 21.304V23.944C76.2198 24.072 76.5238 24.16 76.8598 24.208C77.1958 24.272 77.5398 24.304 77.8918 24.304Z" fill="white"/>
<path d="M91.8583 19H95.0263V15.64H91.8583V19Z" fill="#B8E4DA"/>
</svg>
